<svg height="464pt" viewBox="0 -31 464 463" width="464pt" xmlns="http://www.w3.org/2000/svg"><path d="m144 40.5h320v320h-320zm0 0" fill="#f4f4e6"/><path d="m400 168.5h-64v-64c0-8.835938-7.164062-16-16-16h-32c-8.835938 0-16 7.164062-16 16v64h-64c-8.835938 0-16 7.164062-16 16v32c0 8.835938 7.164062 16 16 16h64v64c0 8.835938 7.164062 16 16 16h32c8.835938 0 16-7.164062 16-16v-64h64c8.835938 0 16-7.164062 16-16v-32c0-8.835938-7.164062-16-16-16zm0 0" fill="#dd3e46"/><g fill="#7d8d9c"><path d="m200 80.5h-16c-4.417969 0-8-3.582031-8-8s3.582031-8 8-8h16c4.417969 0 8 3.582031 8 8s-3.582031 8-8 8zm0 0"/><path d="m200 336.5h-16c-4.417969 0-8-3.582031-8-8s3.582031-8 8-8h16c4.417969 0 8 3.582031 8 8s-3.582031 8-8 8zm0 0"/><path d="m432 80.5h-16c-4.417969 0-8-3.582031-8-8s3.582031-8 8-8h16c4.417969 0 8 3.582031 8 8s-3.582031 8-8 8zm0 0"/><path d="m432 336.5h-16c-4.417969 0-8-3.582031-8-8s3.582031-8 8-8h16c4.417969 0 8 3.582031 8 8s-3.582031 8-8 8zm0 0"/></g><path d="m0 .5c26.507812 0 48 21.492188 48 48v304c0 26.507812-21.492188 48-48 48zm0 0" fill="#7fcac9"/><path d="m48 112.5h96v48h-96zm0 0" fill="#aabece"/><path d="m48 240.5h96v48h-96zm0 0" fill="#aabece"/></svg>